<?xml version="1.0" ?><svg viewBox="0 0 64 64" xmlns="http://www.w3.org/2000/svg"><g id="a"/><g id="b"/><g id="c"/><g id="d"/><g id="e"/><g id="f"/><g id="g"/><g id="h"/><g id="i"/><g id="j"/><g id="k"/><g id="l"/><g id="m"/><g id="n"/><g id="o"/><g id="p"/><g id="q"/><g id="r"/><g id="s"/><g id="t"/><g id="u"/><g id="v"/><g id="w"/><g id="x"/><g id="y"/><g id="a`"/><g id="aa"/><g id="ab"/><g id="ac"/><g id="ad"/><g id="ae"/><g id="af"/><g id="ag"/><g id="ah"/><g id="ai"/><g id="aj"><path d="M7.44,47.57l20.84,5.58c.4,.11,.81,.16,1.21,.16,.8,0,1.6-.21,2.31-.62,1.07-.62,1.84-1.62,2.16-2.82l.9-3.36c.9,1.18,2.1,1.88,3.63,1.88,.8,0,1.6-.21,2.32-.63l16.87-9.74c2.21-1.28,2.98-4.12,1.7-6.34l-10.79-18.68c-.62-1.08-1.62-1.84-2.82-2.17-1.19-.32-2.45-.15-3.52,.47l-16.87,9.74c-.53,.3-.95,.73-1.32,1.2l-9.18-2.46c-2.47-.66-5.02,.81-5.68,3.28l-5.04,18.81c-.32,1.2-.16,2.45,.46,3.52,.62,1.07,1.62,1.84,2.82,2.16ZM26.38,22.78l16.87-9.74c.61-.35,1.32-.45,2-.27,.68,.18,1.25,.62,1.6,1.23l10.79,18.68c.73,1.26,.29,2.88-.97,3.61l-16.87,9.74c-1.26,.73-2.87,.31-3.6-.97l-.65-1.13,1.2-4.49c.42,.61,1.02,1.09,1.78,1.29,.27,.07,.54,.11,.82,.11,1.43,0,2.69-.96,3.06-2.34h0c.07-.27,.11-.54,.11-.82,0-1.43-.96-2.69-2.35-3.06-.27-.07-.54-.11-.82-.11-.49,0-.95,.15-1.37,.36l1.02-3.82c.66-2.47-.81-5.02-3.28-5.68l-9.41-2.52s.04-.05,.07-.07Zm11.8,14.9c0-.77,.73-1.32,1.47-1.12,.6,.16,.99,.78,.82,1.43-.17,.6-.81,.99-1.43,.82-.51-.14-.86-.6-.86-1.12ZM6.09,42.41l5.04-18.81c.32-1.18,1.39-1.96,2.55-1.96,.23,0,.46,.03,.68,.09l20.83,5.58c1.41,.38,2.24,1.83,1.87,3.23l-5.04,18.82c-.18,.68-.62,1.25-1.23,1.6-.61,.35-1.32,.44-2,.26l-20.84-5.58c-.68-.18-1.25-.62-1.61-1.23-.35-.61-.44-1.32-.26-2Z"/><path d="M42.89,24.45c.27,.07,.55,.11,.82,.11,1.4,0,2.68-.93,3.06-2.34,.22-.81,.1-1.67-.32-2.4-.42-.73-1.11-1.26-1.92-1.48-.27-.07-.54-.11-.82-.11-1.73,0-3.16,1.41-3.16,3.17,0,1.43,.96,2.69,2.35,3.06Zm.82-4.22c.1,0,.2,.01,.3,.04,.3,.08,.55,.27,.7,.54,.16,.27,.2,.58,.12,.88-.16,.61-.82,.99-1.43,.82-.51-.14-.86-.6-.86-1.12,0-.65,.53-1.17,1.16-1.17Z"/><path d="M18.84,38.06c.87,1.51,2.81,2.03,4.32,1.16,1.51-.87,2.03-2.82,1.16-4.32-.87-1.5-2.81-2.03-4.32-1.16-1.49,.86-2.04,2.79-1.16,4.32Zm2.16-2.59c.55-.32,1.27-.13,1.59,.43,.32,.55,.13,1.27-.43,1.59-.54,.32-1.28,.12-1.59-.42-.32-.56-.13-1.27,.43-1.59Z"/><path d="M30.46,35c1.5-.87,2.04-2.81,1.16-4.32-.56-.98-1.61-1.58-2.74-1.58-.55,0-1.1,.15-1.58,.42-1.49,.86-2.04,2.78-1.16,4.32,.87,1.51,2.81,2.03,4.32,1.16Zm-2.17-3.75c.18-.1,.38-.16,.58-.16,.41,0,.8,.22,1.01,.58,.32,.55,.13,1.27-.43,1.59h0c-.55,.32-1.27,.13-1.59-.42-.32-.56-.12-1.27,.42-1.59Z"/><path d="M15.86,43.43c1.51-.87,2.03-2.81,1.16-4.32-.86-1.49-2.79-2.04-4.32-1.16-1.51,.87-2.03,2.81-1.16,4.32,.87,1.51,2.81,2.03,4.32,1.16Zm-2.16-3.75c.56-.32,1.27-.12,1.59,.43,.32,.55,.13,1.27-.43,1.59h0c-.54,.31-1.27,.14-1.59-.43-.32-.55-.13-1.27,.43-1.59Z"/><path d="M24.21,41.03c-1.51,.87-2.03,2.81-1.16,4.32,.87,1.51,2.81,2.03,4.32,1.16,1.5-.87,2.04-2.81,1.16-4.32-.86-1.49-2.79-2.04-4.32-1.16Zm2.16,3.75c-.54,.31-1.28,.11-1.59-.43h0c-.32-.55-.12-1.28,.43-1.59,.57-.33,1.27-.12,1.59,.43,.32,.55,.13,1.27-.43,1.59Z"/><path d="M18.95,31.91c1.49-.86,2.04-2.79,1.16-4.32-.86-1.5-2.8-2.04-4.32-1.16-1.51,.87-2.03,2.82-1.16,4.32,.87,1.51,2.82,2.03,4.32,1.16Zm-2.16-3.75c.56-.33,1.27-.12,1.59,.42,.32,.56,.13,1.27-.43,1.59-.55,.31-1.27,.13-1.59-.43h0c-.32-.55-.13-1.27,.43-1.59Z"/></g><g id="ak"/><g id="al"/><g id="am"/><g id="an"/><g id="ao"/><g id="ap"/><g id="aq"/><g id="ar"/><g id="as"/><g id="at"/><g id="au"/><g id="av"/><g id="aw"/><g id="ax"/></svg>